<svg width="404" height="75" viewBox="0 0 404 75" fill="none" xmlns="http://www.w3.org/2000/svg">
<g clip-path="url(#clip0_107_2357)">
<path d="M400.543 34.2093C388.902 38.0393 380.025 33.5688 375.596 28.1081L374.381 26.6081L372.787 27.691C370.415 29.3006 368.064 30.5267 365.76 31.361V35.802C368.35 35.0098 370.97 33.8048 373.59 32.1868C378.797 37.6222 387.746 41.7303 399.101 39V70.7865H4.20544V4.21348H309.411C310.778 6.5941 313.28 10.1376 317.296 13.1039C322.027 16.6011 327.528 18.2275 333.29 17.8441C333.714 18.7416 334.257 19.8034 334.913 20.9537H339.838C338.193 18.4593 337.108 16.1671 336.519 14.7767L335.897 13.3062L334.316 13.5084C329.009 14.191 324.122 12.9143 319.786 9.71208C315.602 6.6236 313.318 2.69242 312.527 1.14607L311.943 0H0V75H403.302V33.3034L400.543 34.2093Z" fill="#DD191F"/>
<path d="M346.634 33.5354C347.012 33.7629 347.391 33.9736 347.773 34.1758V29.2586C345.528 27.7333 343.631 25.8751 342.062 23.9705H336.814C339.131 27.3372 342.353 30.9524 346.634 33.5354Z" fill="#DD191F"/>
<path d="M347.773 34.1798V56.9368H384.916V53.8652H365.756V40.4537H375.155V37.3821H365.756V35.802C363.977 36.3455 362.206 36.6953 360.461 36.8385C356.024 37.2093 351.764 36.3118 347.773 34.1756V34.1798Z" fill="#222222"/>
<path d="M360.457 36.8429C362.206 36.6954 363.973 36.3457 365.751 35.8063V31.3652C363.838 32.0605 361.95 32.4902 360.104 32.6461C356.138 32.979 352.336 32.0647 348.795 29.9284C348.442 29.7177 348.101 29.4944 347.765 29.2668V34.1841C351.756 36.3204 356.016 37.2179 360.453 36.8471L360.457 36.8429Z" fill="#DD191F"/>
<path d="M300.374 23.9747H313.81V56.7851H331.692V23.9747H336.814C336.095 22.9298 335.46 21.9101 334.913 20.9537H300.374V23.9747Z" fill="#222222"/>
<path d="M336.814 23.9739H342.062C341.23 22.9629 340.494 21.9436 339.842 20.9537H334.917C335.464 21.9099 336.099 22.9292 336.818 23.9739H336.814Z" fill="#DD191F"/>
<path d="M297.829 20.9537H281.176V56.7851H297.829V20.9537Z" fill="#DD191F"/>
<path d="M276.891 35.1826C277.706 33.6826 278.119 32.0941 278.119 30.4214C278.119 28.7486 277.694 27.0927 276.84 25.6601C275.986 24.1938 274.83 23.0478 273.366 22.2304C271.937 21.3792 270.351 20.9495 268.614 20.9495H234.538V56.7809H268.614C270.351 56.7809 271.937 56.3554 273.366 55.5C274.83 54.6447 275.991 53.5028 276.84 52.0703C277.694 50.604 278.119 49.0155 278.119 47.309C278.119 45.6026 277.711 44.052 276.891 42.5478C276.075 41.0141 274.986 39.7669 273.623 38.8104C274.986 37.8877 276.075 36.6784 276.891 35.1742V35.1826ZM259.06 50.486C258.479 51.5099 257.663 52.3273 256.608 52.9424C255.586 53.5239 254.463 53.8146 253.235 53.8146C252.894 53.8146 252.638 53.7978 252.47 53.7641V40.3526H253.235C254.463 40.3526 255.586 40.6601 256.608 41.2753C257.663 41.8568 258.479 42.6742 259.06 43.7318C259.674 44.7556 259.981 45.8638 259.981 47.0604C259.981 48.2571 259.674 49.4326 259.06 50.4902V50.486ZM259.06 34.0576C258.479 35.0815 257.663 35.8989 256.608 36.5141C255.586 37.0955 254.463 37.3863 253.235 37.3863C252.894 37.3863 252.638 37.3694 252.47 37.3357V23.8736H253.235C254.463 23.8736 255.586 24.1812 256.608 24.7964C257.663 25.4115 258.479 26.2458 259.06 27.3034C259.674 28.3273 259.981 29.4523 259.981 30.6826C259.981 31.9129 259.674 33.0042 259.06 34.0618V34.0576Z" fill="#222222"/>
<path d="M213.897 36.9733H202.606V20.9537H185.233V56.7851H202.606V40.4031H213.897V56.7851H231.266V20.9537H213.897V36.9733Z" fill="#DD191F"/>
<path d="M179.644 38.1531C177.634 36.3455 174.602 34.8961 170.552 33.8006L163.348 31.9087C160.963 31.2598 159.344 30.6109 158.495 29.9621C157.645 29.2795 157.216 28.4958 157.216 27.6067C157.216 26.448 157.78 25.5421 158.903 24.8933C160.059 24.2107 161.712 23.8694 163.857 23.8694C166.308 23.8694 168.642 24.1938 170.854 24.8427C173.104 25.4916 175.026 26.2753 176.629 27.198L178.315 24.8427C176.41 23.684 173.937 22.6938 170.909 21.8722C167.911 21.0548 164.626 20.6418 161.047 20.6418C157.469 20.6418 154.083 21.1727 151.392 22.2303C148.734 23.2542 146.707 24.6699 145.311 26.4775C143.914 28.2851 143.216 30.2991 143.216 32.5154C143.216 35.1784 144.188 37.4789 146.126 39.4256C148.103 41.3722 150.895 42.889 154.504 43.9803L161.144 45.927C164.79 46.9508 166.611 48.3834 166.611 50.2247C166.611 51.2823 166.081 52.0997 165.026 52.6812C164.004 53.2626 162.49 53.5492 160.48 53.5492C157.38 53.5492 154.487 53.0562 151.795 52.066C149.104 51.0758 146.875 49.8834 145.105 48.4846L143.418 50.7893C145.428 52.5295 148.204 54.0126 151.745 55.243C155.32 56.4354 159.441 57.0337 164.109 57.0337C168.062 57.0337 171.414 56.5239 174.173 55.5C176.965 54.4761 179.076 53.0604 180.506 51.2528C181.936 49.4452 182.651 47.3975 182.651 45.1095C182.651 42.2444 181.646 39.9227 179.635 38.1489L179.644 38.1531Z" fill="#DD191F"/>
<path d="M105.359 56.7851H142.501V53.7135H123.341V40.302H132.741V37.2304H123.341V23.9747H142.501V20.9537H105.359V56.7851Z" fill="#DD191F"/>
<path d="M100.741 36.2571C102.104 34.4495 102.785 32.4354 102.785 30.2191C102.785 28.5464 102.36 27.0127 101.507 25.6138C100.691 24.1812 99.5639 23.0562 98.134 22.2346C96.7378 21.3835 95.207 20.9537 93.5375 20.9537H59.3599V56.7851H76.3204V40.3526L77.6998 40.4031C78.482 40.4368 79.3189 40.538 80.202 40.7107C81.0557 40.8835 81.8211 41.1531 82.5024 41.5281C83.1164 41.8694 83.6589 42.4003 84.1383 43.1166C84.5462 43.7318 84.7523 44.5829 84.7523 45.6742V56.7809H101.868V47.5155C101.868 45.7079 101.271 44.0857 100.081 42.6531C98.9246 41.2205 97.4233 40.2472 95.5855 39.7374C97.663 39.2276 99.383 38.0646 100.746 36.2571H100.741ZM83.9323 34.0576C83.3519 35.0815 82.536 35.8989 81.4805 36.5141C80.4586 37.0955 79.3357 37.3863 78.1077 37.3863L76.3204 37.4368V23.8736H78.1077C79.3315 23.8736 80.4586 24.1812 81.4805 24.7964C82.536 25.4115 83.3561 26.2458 83.9323 27.3034C84.5462 28.3273 84.8532 29.4523 84.8532 30.6826C84.8532 31.9129 84.5462 33.0042 83.9323 34.0618V34.0576Z" fill="#DD191F"/>
<path d="M19.345 56.7851H37.277V40.302H46.6761V37.2304H37.277V23.9747H56.437V20.9537H19.345V56.7851Z" fill="#DD191F"/>
</g>
<defs>
<clipPath id="clip0_107_2357">
<rect width="403.302" height="75" fill="white"/>
</clipPath>
</defs>
</svg>
