<svg width="179" height="70" viewBox="0 0 179 70" fill="none" xmlns="http://www.w3.org/2000/svg">
<g id="Layer_1" clip-path="url(#clip0_107_3557)">
<path id="Vector" d="M125.463 4.03615L125.611 47.0244C125.611 47.0244 121.846 49.7879 121.846 54.3414L123.645 66.7395C123.774 67.5685 124.452 68.5106 125.445 68.5106V54.3382C125.445 54.0116 125.715 53.7479 126.044 53.7479C126.374 53.7479 126.644 54.0116 126.644 54.3382L127.037 66.0423C127.037 66.0423 127.379 68.9157 128.371 68.9157C129.364 68.9157 129.631 66.0423 129.631 66.0423L130.243 54.3382C130.243 54.0116 130.513 53.7479 130.843 53.7479C131.173 53.7479 131.443 54.0116 131.443 54.3382V68.5106C132.435 68.5106 133.038 67.5685 133.242 66.7395L135.041 54.3414C135.041 49.4927 131.612 47.0244 131.612 47.0244L131.461 4.03615C131.461 2.40946 130.117 1.08423 128.466 1.08423C126.814 1.08423 125.47 2.40946 125.47 4.03615H125.463Z" fill="#222222"/>
<path id="Vector_2" d="M128.365 69.5439C126.968 69.5439 126.531 67.1478 126.409 66.1177V66.0643L126.069 56.0561V69.1388H125.441C124.104 69.1388 123.196 67.9517 123.023 66.8369L121.218 54.3414C121.218 50.1867 124.088 47.4672 124.983 46.7198L124.835 4.03615C124.835 2.06087 126.462 0.456146 128.459 0.456146C130.456 0.456146 132.083 2.06087 132.083 4.03615L132.231 46.7198C133.075 47.4358 135.66 49.9732 135.66 54.3414L135.654 54.4325L133.842 66.8903C133.59 67.9297 132.809 69.1419 131.433 69.1419H130.805V55.4531L130.249 66.0769C130.152 67.1384 129.775 69.5439 128.362 69.5439H128.365ZM127.658 65.9953C127.781 66.9813 128.107 68.0239 128.362 68.2626C128.607 68.0176 128.908 66.9656 128.999 65.9858L129.609 54.3226C129.618 53.66 130.164 53.123 130.836 53.123C131.508 53.123 132.064 53.6694 132.064 54.3414V67.622C132.359 67.3519 132.538 66.9248 132.617 66.6202L134.404 54.2975C134.385 49.8758 131.364 47.6274 131.235 47.5331L130.978 47.3447V47.0244L130.827 4.03615C130.827 2.75174 129.766 1.70915 128.459 1.70915C127.153 1.70915 126.091 2.75174 126.091 4.03301L126.242 47.3384L125.985 47.5269C125.95 47.552 122.499 50.1522 122.477 54.2943L124.27 66.6485C124.32 66.9656 124.512 67.3802 124.82 67.6408V54.3414C124.82 53.6694 125.369 53.123 126.047 53.123C126.726 53.123 127.275 53.6694 127.275 54.3414L127.665 65.9953H127.658Z" fill="#222222"/>
<path id="Vector_3" d="M177.775 28.5152C172.609 30.2141 168.668 28.2294 166.702 25.8082L166.162 25.1425L165.456 25.6229C164.404 26.3358 163.361 26.8822 162.337 27.2528V29.2249C163.487 28.8732 164.649 28.3393 165.814 27.6202C168.125 30.032 172.098 31.8565 177.135 30.6444V44.7508H1.86537V15.2033H137.328C137.934 16.2584 139.045 17.8317 140.829 19.1507C142.93 20.702 145.37 21.4243 147.926 21.2547C148.115 21.6535 148.356 22.1246 148.645 22.6333H150.831C150.102 21.5248 149.619 20.5104 149.358 19.8918L149.082 19.2386L148.382 19.3297C146.026 19.6311 143.856 19.0659 141.931 17.6433C140.075 16.271 139.061 14.5281 138.709 13.8403L138.449 13.3316H0V46.6193H179V28.1132L177.775 28.5152Z" fill="#DD191F"/>
<path id="Vector_4" d="M153.849 28.2168C154.019 28.3173 154.185 28.4115 154.355 28.5026V26.3201C153.359 25.6417 152.518 24.819 151.82 23.9742H149.49C150.517 25.469 151.949 27.0737 153.849 28.22V28.2168Z" fill="#DD191F"/>
<path id="Vector_5" d="M154.354 28.5026V38.602H170.838V37.2391H162.334V31.2881H166.505V29.9252H162.334V29.2249C161.546 29.4667 160.758 29.6206 159.985 29.6834C158.016 29.8467 156.126 29.451 154.354 28.5026Z" fill="#222222"/>
<path id="Vector_6" d="M159.985 29.6834C160.761 29.6174 161.546 29.4636 162.334 29.2249V27.2528C161.483 27.5605 160.648 27.7521 159.828 27.8212C158.067 27.9688 156.38 27.5637 154.81 26.6153C154.653 26.5211 154.502 26.4237 154.352 26.3232V28.5058C156.123 29.4541 158.013 29.853 159.982 29.6865L159.985 29.6834Z" fill="#DD191F"/>
<path id="Vector_7" d="M133.317 23.9711H139.281V38.5329H147.217V23.9711H149.49C149.17 23.5063 148.89 23.0541 148.645 22.6302H133.314V23.9711H133.317Z" fill="#222222"/>
<path id="Vector_8" d="M149.49 23.9711H151.82C151.45 23.522 151.123 23.0698 150.834 22.6302H148.649C148.89 23.0541 149.173 23.5063 149.493 23.9711H149.49Z" fill="#DD191F"/>
<path id="Vector_9" d="M132.187 22.6302H124.794V38.5329H132.187V22.6302Z" fill="#DD191F"/>
<path id="Vector_10" d="M122.895 28.9454C123.256 28.2796 123.441 27.5731 123.441 26.8319C123.441 26.0908 123.253 25.356 122.873 24.7185C122.493 24.0684 121.981 23.5597 121.331 23.1954C120.696 22.8186 119.993 22.627 119.22 22.627H104.096V38.5297H119.22C119.993 38.5297 120.696 38.3413 121.331 37.9613C121.981 37.5814 122.496 37.0758 122.873 36.4383C123.253 35.7882 123.441 35.0816 123.441 34.3248C123.441 33.568 123.259 32.8803 122.895 32.2114C122.533 31.5299 122.05 30.9772 121.444 30.5533C122.05 30.145 122.533 29.608 122.895 28.9391V28.9454ZM114.981 35.738C114.723 36.1933 114.362 36.5545 113.894 36.8277C113.442 37.0852 112.943 37.2139 112.396 37.2139C112.246 37.2139 112.133 37.2077 112.057 37.192V31.241H112.396C112.943 31.241 113.439 31.376 113.894 31.6492C114.362 31.9067 114.723 32.271 114.981 32.7389C115.254 33.1943 115.389 33.6842 115.389 34.2149C115.389 34.7456 115.254 35.2669 114.981 35.738ZM114.981 28.4461C114.723 28.9014 114.362 29.2626 113.894 29.5358C113.442 29.7933 112.943 29.922 112.396 29.922C112.246 29.922 112.133 29.9158 112.057 29.9001V23.924H112.396C112.943 23.924 113.439 24.059 113.894 24.3322C114.362 24.6054 114.723 24.976 114.981 25.4439C115.254 25.8993 115.389 26.3986 115.389 26.945C115.389 27.4914 115.254 27.975 114.981 28.4461Z" fill="#222222"/>
<path id="Vector_11" d="M94.9359 29.7431H89.9239V22.6333H82.2144V38.536H89.9239V31.2661H94.9359V38.536H102.645V22.6333H94.9359V29.7431Z" fill="#DD191F"/>
<path id="Vector_12" d="M79.7336 30.2644C78.8417 29.4636 77.4945 28.8198 75.6982 28.3331L72.5013 27.4946C71.443 27.2057 70.7239 26.9199 70.3471 26.631C69.9702 26.3295 69.7787 25.9809 69.7787 25.5853C69.7787 25.0702 70.0299 24.6683 70.5261 24.3825C71.0379 24.081 71.7728 23.9271 72.7243 23.9271C73.8109 23.9271 74.8472 24.0716 75.8301 24.3605C76.8287 24.6494 77.6829 24.9949 78.3926 25.4063L79.14 24.3605C78.2953 23.8455 77.1962 23.4058 75.8521 23.0416C74.5206 22.6773 73.0635 22.4951 71.4744 22.4951C69.8854 22.4951 68.3843 22.7307 67.1879 23.2017C66.0071 23.6571 65.109 24.2851 64.4872 25.0859C63.8685 25.8867 63.5576 26.7817 63.5576 27.7647C63.5576 28.9454 63.9878 29.966 64.8483 30.8328C65.7245 31.6964 66.9649 32.3716 68.5665 32.8552L71.5121 33.7188C73.1294 34.1741 73.9396 34.8085 73.9396 35.625C73.9396 36.0929 73.7041 36.4572 73.2362 36.7147C72.784 36.9722 72.1119 37.1009 71.2201 37.1009C69.8446 37.1009 68.5602 36.8811 67.3669 36.4415C66.1735 36.0018 65.1843 35.4742 64.3961 34.8524L63.6487 35.8762C64.5405 36.6487 65.7716 37.3082 67.3449 37.8546C68.9308 38.3822 70.7616 38.6491 72.8311 38.6491C74.5865 38.6491 76.0719 38.423 77.2967 37.9677C78.5371 37.5123 79.4729 36.8842 80.1073 36.0835C80.7416 35.2827 81.0588 34.372 81.0588 33.3576C81.0588 32.0858 80.6129 31.0557 79.721 30.2675H79.7241L79.7336 30.2644Z" fill="#DD191F"/>
<path id="Vector_13" d="M46.7629 38.536H63.2467V37.1731H54.7426V31.2221H58.913V29.8592H54.7426V23.9773H63.2467V22.6364H46.7629V38.5391V38.536Z" fill="#DD191F"/>
<path id="Vector_14" d="M44.7124 29.4227C45.3185 28.6219 45.62 27.7269 45.62 26.744C45.62 26.0029 45.4316 25.3214 45.0516 24.6996C44.6904 24.0653 44.188 23.566 43.5536 23.1986C42.935 22.8217 42.2535 22.6302 41.5124 22.6302H26.3445V38.5329H33.8719V31.241L34.4843 31.263C34.8297 31.2787 35.2034 31.3226 35.596 31.398C35.9759 31.4734 36.3151 31.5959 36.6166 31.7623C36.8898 31.913 37.1316 32.1486 37.342 32.4689C37.5241 32.7421 37.6152 33.1189 37.6152 33.6025V38.5329H45.2117V34.419C45.2117 33.6151 44.9479 32.896 44.4172 32.2616C43.9053 31.6273 43.2364 31.1939 42.4231 30.9678C43.3464 30.7417 44.1095 30.2267 44.7124 29.4227ZM37.2509 28.4461C36.9934 28.9014 36.6323 29.2626 36.1612 29.5358C35.709 29.7933 35.2097 29.922 34.6633 29.922L33.8688 29.944V23.924H34.6633C35.2066 23.924 35.7059 24.059 36.1612 24.3322C36.6291 24.6054 36.9934 24.976 37.2509 25.4439C37.5241 25.8993 37.6592 26.3986 37.6592 26.945C37.6592 27.4914 37.5241 27.975 37.2509 28.4461Z" fill="#DD191F"/>
<path id="Vector_15" d="M8.58569 38.536H16.5433V31.219H20.7137V29.8561H16.5433V23.9742H25.0474V22.6333H8.58569V38.536Z" fill="#DD191F"/>
</g>
<defs>
<clipPath id="clip0_107_3557">
<rect width="179" height="69.0877" fill="white" transform="translate(0 0.456146)"/>
</clipPath>
</defs>
</svg>
