<svg width="996" height="78" viewBox="0 0 996 78" fill="none" xmlns="http://www.w3.org/2000/svg">
<rect x="85" y="10.5" width="22" height="24" stroke="#A0BD1F"/>
<path d="M92.5529 29V27.875H95.4779V24.98L95.8379 19.55H95.3879L93.6329 22.985L92.4029 22.25L94.9379 18.5H96.8279V27.875H99.6029V29H92.5529Z" fill="#A0BD1F"/>
<path d="M35.1889 62.025C36.5989 62.025 37.0339 61.095 37.0339 58.95H38.4139C38.4139 61.86 37.3339 63.15 35.1889 63.15C32.9539 63.15 31.6639 61.725 31.6639 57.75C31.6639 53.775 32.9539 52.35 35.1889 52.35C37.3339 52.35 38.3839 53.64 38.3839 55.92H37.0039C37.0039 54.405 36.5989 53.4 35.1889 53.4C33.6889 53.4 33.0439 54.525 33.0439 57.75C33.0439 60.975 33.6889 62.025 35.1889 62.025ZM40.8231 63V51.45H42.1731V53.445L41.4231 57.075H41.8731C42.2631 55.29 43.1781 54.645 44.4231 54.645C45.9381 54.645 46.7481 55.935 46.7481 57.675V63H45.3981V57.675C45.4131 56.565 45.0381 55.71 44.1681 55.71C43.1031 55.71 42.1881 56.88 42.1731 58.92V63H40.8231ZM54.4522 58.965C54.4522 56.79 53.5522 55.8 52.4572 55.8C51.3622 55.8 50.4622 56.79 50.4622 58.965C50.4472 61.155 51.3622 62.025 52.4572 62.025C53.5522 62.025 54.4672 61.155 54.4522 58.965ZM49.0822 58.965C49.0822 56.04 50.6122 54.75 52.4572 54.75C54.3022 54.75 55.8322 56.04 55.8322 58.965C55.8322 61.89 54.3022 63.15 52.4572 63.15C50.6122 63.15 49.0822 61.89 49.0822 58.965ZM63.1614 58.965C63.1614 56.79 62.2614 55.8 61.1664 55.8C60.0714 55.8 59.1714 56.79 59.1714 58.965C59.1564 61.155 60.0714 62.025 61.1664 62.025C62.2614 62.025 63.1764 61.155 63.1614 58.965ZM57.7914 58.965C57.7914 56.04 59.3214 54.75 61.1664 54.75C63.0114 54.75 64.5414 56.04 64.5414 58.965C64.5414 61.89 63.0114 63.15 61.1664 63.15C59.3214 63.15 57.7914 61.89 57.7914 58.965ZM69.9205 63.15C68.1355 63.15 66.4705 62.16 66.8005 60.555H68.1505C68.0005 61.695 68.9905 62.025 69.9205 62.025C70.9705 62.025 71.6305 61.605 71.6305 60.795C71.6305 60.12 70.9705 59.82 69.9505 59.565L69.1255 59.355C67.5505 58.95 66.9505 58.14 66.9505 57.06C66.9505 55.5 68.4505 54.75 69.8905 54.75C71.4805 54.75 73.0855 55.68 73.0255 57.525H71.6455C71.7055 56.235 70.7605 55.8 69.8755 55.8C69.0955 55.8 68.2255 56.145 68.2255 57C68.2255 57.54 68.7805 57.96 69.6205 58.17L70.4455 58.38C71.9905 58.77 72.9805 59.415 72.9805 60.735C72.9805 62.22 71.6605 63.15 69.9205 63.15ZM78.7347 63.15C76.8147 63.15 75.4347 61.755 75.4347 58.98C75.4347 56.205 76.8147 54.75 78.7347 54.75C80.6397 54.75 81.7347 56.175 81.7347 58.035V59.16H76.6197L76.9947 60.285C77.0997 61.335 77.5647 62.025 78.7347 62.025C79.7247 62.025 80.1597 61.515 80.2797 60.525H81.6597C81.3897 62.265 80.3847 63.15 78.7347 63.15ZM76.6197 58.185H80.6847L80.3097 57.06C80.1447 56.43 79.7547 55.8 78.7347 55.8C77.8647 55.8 77.2497 56.265 76.9947 57.06L76.6197 58.185ZM92.5529 63V52.5H94.7129L95.7779 57.93H96.2279L97.2929 52.5H99.4529V63H98.1029V58.98L98.4629 53.55H98.0129L96.9179 58.98H95.0879L93.9929 53.55H93.5429L93.9029 58.98V63H92.5529ZM104.862 63.15C102.942 63.15 101.562 61.755 101.562 58.98C101.562 56.205 102.942 54.75 104.862 54.75C106.767 54.75 107.862 56.175 107.862 58.035V59.16H102.747L103.122 60.285C103.227 61.335 103.692 62.025 104.862 62.025C105.852 62.025 106.287 61.515 106.407 60.525H107.787C107.517 62.265 106.512 63.15 104.862 63.15ZM102.747 58.185H106.812L106.437 57.06C106.272 56.43 105.882 55.8 104.862 55.8C103.992 55.8 103.377 56.265 103.122 57.06L102.747 58.185ZM112.266 63.15C110.841 63.15 109.896 62.025 109.896 60.795C109.896 59.22 110.931 58.47 112.101 58.47C112.941 58.47 113.901 59.01 114.516 59.85H114.861L114.621 57.675C114.621 56.175 114.036 55.8 113.301 55.8C112.071 55.8 111.891 56.835 111.891 57.675H110.541C110.541 55.725 111.606 54.75 113.301 54.75C114.996 54.75 115.956 55.74 115.971 57.675V60.825C115.971 61.635 116.181 61.875 116.946 61.875V63C115.656 63 115.371 62.565 115.371 60.825H114.921C114.621 62.04 113.481 63.15 112.266 63.15ZM111.216 60.795C111.216 61.635 111.591 62.025 112.266 62.025C112.986 62.025 113.916 61.53 114.291 60.24C113.631 59.61 112.941 59.34 112.461 59.34C111.696 59.34 111.216 59.835 111.216 60.795ZM121.155 54.09L121.245 52.515V52.5H119.13V51.45H122.505V60.3L122.415 61.875H125.13V63H119.13V61.875H121.245L121.155 60.3V54.09ZM136.399 63V52.5H140.209C141.634 52.5 142.399 53.79 142.399 54.975C142.399 56.055 141.754 56.925 140.704 56.925V57.375C142.249 57.375 143.074 58.59 143.074 59.835C143.074 61.395 141.994 63 139.699 63H136.399ZM137.674 61.935L139.324 61.95C141.034 61.965 141.724 60.87 141.724 59.835C141.724 58.725 140.944 57.675 139.324 57.675H137.674L137.749 59.1V60.525L137.674 61.935ZM137.674 56.625H139.324C140.494 56.625 141.049 55.785 141.049 54.975C141.049 54.24 140.599 53.55 139.699 53.55H137.674L137.749 54.975V55.2L137.674 56.625ZM150.253 58.965C150.253 56.79 149.353 55.8 148.258 55.8C147.163 55.8 146.263 56.79 146.263 58.965C146.248 61.155 147.163 62.025 148.258 62.025C149.353 62.025 150.268 61.155 150.253 58.965ZM144.883 58.965C144.883 56.04 146.413 54.75 148.258 54.75C150.103 54.75 151.633 56.04 151.633 58.965C151.633 61.89 150.103 63.15 148.258 63.15C146.413 63.15 144.883 61.89 144.883 58.965ZM153.592 63L155.752 59.04L153.592 54.9H155.032L156.787 58.53H157.237L158.992 54.9H160.342L158.257 59.04L160.342 63H158.992L157.237 59.58H156.787L155.032 63H153.592Z" fill="#A0BD1F"/>
<rect x="286" y="10.5" width="22" height="24" stroke="black" stroke-opacity="0.5"/>
<path d="M293.883 27.875C293.883 26.33 294.423 25.22 296.598 23.9C297.768 23.18 298.953 22.475 298.953 21.2C298.953 20.195 298.203 19.4 296.928 19.4C295.623 19.4 295.023 20.24 295.083 21.5H293.703C293.628 18.995 295.428 18.35 296.928 18.35C298.953 18.35 300.303 19.535 300.303 21.29C300.303 22.655 299.433 23.735 297.423 24.965C295.653 26.045 295.233 26.645 295.233 27.875H300.153V29H293.883V27.875Z" fill="black" fill-opacity="0.5"/>
<path d="M250.123 59.865C249.913 59.34 249.343 58.875 248.533 58.875H247.213L247.303 60.45V63H245.953V52.5H248.908C251.203 52.5 252.283 53.79 252.283 55.5C252.283 57.105 251.338 58.125 249.913 58.125V58.575C250.573 58.575 250.993 59.01 251.248 59.55L252.853 63H251.353L250.123 59.865ZM247.213 57.825H248.533C249.973 57.825 250.933 56.895 250.933 55.5C250.933 54.315 250.243 53.565 248.533 53.565H247.213L247.303 55.14V56.55L247.213 57.825ZM257.962 63.15C256.042 63.15 254.662 61.755 254.662 58.98C254.662 56.205 256.042 54.75 257.962 54.75C259.867 54.75 260.962 56.175 260.962 58.035V59.16H255.847L256.222 60.285C256.327 61.335 256.792 62.025 257.962 62.025C258.952 62.025 259.387 61.515 259.507 60.525H260.887C260.617 62.265 259.612 63.15 257.962 63.15ZM255.847 58.185H259.912L259.537 57.06C259.372 56.43 258.982 55.8 257.962 55.8C257.092 55.8 256.477 56.265 256.222 57.06L255.847 58.185ZM266.701 66C264.946 66 263.281 65.355 263.281 64.425C263.281 64.125 263.461 63.795 263.866 63.435L264.331 63.03C263.761 63.03 263.446 62.76 263.446 62.325C263.446 62.04 263.596 61.68 263.881 61.29L264.706 60.165C263.776 59.775 263.146 59.01 263.146 57.66C263.146 56.055 264.091 54.765 265.891 54.765C267.301 54.765 268.156 55.545 268.486 56.97L268.531 57.165H268.981L268.951 56.97C268.801 55.965 268.906 54.9 270.346 54.9H270.496V56.025H270.346C269.686 56.025 269.491 56.235 269.491 57.075C269.491 60.015 268.501 60.525 266.791 60.525C266.281 60.525 265.786 60.48 265.336 60.375L264.796 61.35C264.616 61.68 264.706 61.95 265.021 61.95H267.826C269.416 61.95 270.166 62.775 270.166 63.705C270.166 64.89 268.921 66 266.701 66ZM264.346 57.675C264.346 59.175 265.516 59.55 266.716 59.55C267.931 59.55 268.441 59.175 268.441 58.515C268.441 58.155 268.276 57.69 267.991 57.18C267.496 56.31 266.701 55.89 265.966 55.89C265.096 55.89 264.346 56.475 264.346 57.675ZM264.541 63.6C264.001 64.485 265.306 64.875 266.701 64.875C268.006 64.875 268.816 64.395 268.816 63.795C268.816 63.36 268.426 63 267.526 63H265.981L264.901 63.015L264.541 63.6ZM271.93 63V61.875H274.645L274.555 60.3V57.525L274.645 55.95H271.93V54.9H275.905V60.3L275.815 61.875H278.53V63H271.93ZM274.48 53.7V52.275H275.98V53.7H274.48ZM283.984 63.15C282.199 63.15 280.534 62.16 280.864 60.555H282.214C282.064 61.695 283.054 62.025 283.984 62.025C285.034 62.025 285.694 61.605 285.694 60.795C285.694 60.12 285.034 59.82 284.014 59.565L283.189 59.355C281.614 58.95 281.014 58.14 281.014 57.06C281.014 55.5 282.514 54.75 283.954 54.75C285.544 54.75 287.149 55.68 287.089 57.525H285.709C285.769 56.235 284.824 55.8 283.939 55.8C283.159 55.8 282.289 56.145 282.289 57C282.289 57.54 282.844 57.96 283.684 58.17L284.509 58.38C286.054 58.77 287.044 59.415 287.044 60.735C287.044 62.22 285.724 63.15 283.984 63.15ZM293.458 62.025C294.058 62.04 294.598 61.635 294.598 60.36H295.948C295.948 62.1 294.748 63.15 293.458 63.15C292.168 63.15 290.998 62.1 290.998 60.36V57.525L291.088 55.95H289.348V54.9H291.088L290.998 53.325V52.5H292.348V53.325L292.258 54.9H295.948V55.95H292.258L292.348 57.525V60.36C292.348 61.635 292.858 62.04 293.458 62.025ZM298.733 63V57.54L298.823 55.965V55.95H297.908V54.9H299.783L299.333 57.075H299.783C300.173 55.275 301.238 54.75 302.483 54.75C304.148 54.75 304.808 56.16 304.808 58.335C304.808 58.485 304.808 58.62 304.793 58.755H303.458V58.335C303.458 56.73 303.158 55.815 302.228 55.815C301.163 55.815 300.083 56.88 300.083 58.92V63H298.733ZM308.912 63.15C307.487 63.15 306.542 62.025 306.542 60.795C306.542 59.22 307.577 58.47 308.747 58.47C309.587 58.47 310.547 59.01 311.162 59.85H311.507L311.267 57.675C311.267 56.175 310.682 55.8 309.947 55.8C308.717 55.8 308.537 56.835 308.537 57.675H307.187C307.187 55.725 308.252 54.75 309.947 54.75C311.642 54.75 312.602 55.74 312.617 57.675V60.825C312.617 61.635 312.827 61.875 313.592 61.875V63C312.302 63 312.017 62.565 312.017 60.825H311.567C311.267 62.04 310.127 63.15 308.912 63.15ZM307.862 60.795C307.862 61.635 308.237 62.025 308.912 62.025C309.632 62.025 310.562 61.53 310.937 60.24C310.277 59.61 309.587 59.34 309.107 59.34C308.342 59.34 307.862 59.835 307.862 60.795ZM319.586 62.025C320.186 62.04 320.726 61.635 320.726 60.36H322.076C322.076 62.1 320.876 63.15 319.586 63.15C318.296 63.15 317.126 62.1 317.126 60.36V57.525L317.216 55.95H315.476V54.9H317.216L317.126 53.325V52.5H318.476V53.325L318.386 54.9H322.076V55.95H318.386L318.476 57.525V60.36C318.476 61.635 318.986 62.04 319.586 62.025ZM324.185 63V61.875H326.9L326.81 60.3V57.525L326.9 55.95H324.185V54.9H328.16V60.3L328.07 61.875H330.785V63H324.185ZM326.735 53.7V52.275H328.235V53.7H326.735ZM338.189 58.965C338.189 56.79 337.289 55.8 336.194 55.8C335.099 55.8 334.199 56.79 334.199 58.965C334.184 61.155 335.099 62.025 336.194 62.025C337.289 62.025 338.204 61.155 338.189 58.965ZM332.819 58.965C332.819 56.04 334.349 54.75 336.194 54.75C338.039 54.75 339.569 56.04 339.569 58.965C339.569 61.89 338.039 63.15 336.194 63.15C334.349 63.15 332.819 61.89 332.819 58.965ZM342.263 63V57.54L342.353 55.965V55.95H341.453V54.9H343.313L342.863 57.075H343.313C343.703 55.275 344.618 54.645 345.878 54.645C347.393 54.645 348.203 55.935 348.203 57.675V63H346.853V57.675C346.868 56.565 346.493 55.71 345.623 55.71C344.543 55.71 343.613 56.88 343.613 58.92V63H342.263Z" fill="#DD191F"/>
<rect x="487" y="10.5" width="22" height="24" stroke="black" stroke-opacity="0.5"/>
<path d="M497.853 28.025C499.368 28.04 499.878 27.02 499.878 26.135C499.878 25.025 499.503 23.975 497.853 23.975H497.133V22.925H497.853C499.053 22.925 499.653 22.085 499.653 20.975C499.653 20.03 498.918 19.4 497.853 19.4C496.728 19.4 496.158 20.15 496.158 21.5H494.778C494.778 19.49 495.843 18.35 497.853 18.35C499.938 18.35 501.003 19.295 501.003 20.96C501.003 22.34 500.283 23.225 499.233 23.225V23.675C500.778 23.675 501.258 24.89 501.258 26.135C501.258 27.95 499.893 29.15 497.853 29.15C495.918 29.15 494.628 27.845 494.628 25.88H496.008C496.008 27.215 496.743 28.025 497.853 28.025Z" fill="black" fill-opacity="0.5"/>
<path d="M412.041 63V52.5H414.741C417.081 52.5 418.641 54.45 418.641 57.36C418.641 60.75 417.081 63 414.741 63H412.041ZM413.301 61.95H414.741C416.256 61.95 417.276 60.12 417.276 57.36C417.276 55.08 416.256 53.55 414.741 53.55H413.301L413.391 54.975V60.525L413.301 61.95ZM424.125 63.15C422.205 63.15 420.825 61.755 420.825 58.98C420.825 56.205 422.205 54.75 424.125 54.75C426.03 54.75 427.125 56.175 427.125 58.035V59.16H422.01L422.385 60.285C422.49 61.335 422.955 62.025 424.125 62.025C425.115 62.025 425.55 61.515 425.67 60.525H427.05C426.78 62.265 425.775 63.15 424.125 63.15ZM422.01 58.185H426.075L425.7 57.06C425.535 56.43 425.145 55.8 424.125 55.8C423.255 55.8 422.64 56.265 422.385 57.06L422.01 58.185ZM431.709 54.09L431.799 52.515V52.5H429.684V51.45H433.059V60.3L432.969 61.875H435.684V63H429.684V61.875H431.799L431.709 60.3V54.09ZM438.094 63V61.875H440.809L440.719 60.3V57.525L440.809 55.95H438.094V54.9H442.069V60.3L441.979 61.875H444.694V63H438.094ZM440.644 53.7V52.275H442.144V53.7H440.644ZM449.068 63L446.578 54.9H448.018L449.923 61.875H450.373L452.278 54.9H453.628L451.228 63H449.068ZM458.962 63.15C457.042 63.15 455.662 61.755 455.662 58.98C455.662 56.205 457.042 54.75 458.962 54.75C460.867 54.75 461.962 56.175 461.962 58.035V59.16H456.847L457.222 60.285C457.327 61.335 457.792 62.025 458.962 62.025C459.952 62.025 460.387 61.515 460.507 60.525H461.887C461.617 62.265 460.612 63.15 458.962 63.15ZM456.847 58.185H460.912L460.537 57.06C460.372 56.43 459.982 55.8 458.962 55.8C458.092 55.8 457.477 56.265 457.222 57.06L456.847 58.185ZM464.896 63V57.54L464.986 55.965V55.95H464.071V54.9H465.946L465.496 57.075H465.946C466.336 55.275 467.401 54.75 468.646 54.75C470.311 54.75 470.971 56.16 470.971 58.335C470.971 58.485 470.971 58.62 470.956 58.755H469.621V58.335C469.621 56.73 469.321 55.815 468.391 55.815C467.326 55.815 466.246 56.88 466.246 58.92V63H464.896ZM473.89 66V64.875H475.015C475.54 64.875 475.765 64.56 476.14 63.21L476.2 63H475.195L472.705 54.9H474.145L476.05 61.875H476.5L478.405 54.9H479.755L477.295 63.21C476.635 65.445 476.155 66 475.015 66H473.89ZM490.648 63V61.875H493.063L492.973 60.36V55.14L493.063 53.565V53.55H490.648V52.5H496.648V53.55H494.233V53.565L494.323 55.14V60.36L494.233 61.875H496.648V63H490.648ZM499.717 63V57.54L499.807 55.965V55.95H498.907V54.9H500.767L500.317 57.075H500.767C501.157 55.275 502.072 54.645 503.332 54.645C504.847 54.645 505.657 55.935 505.657 57.675V63H504.307V57.675C504.322 56.565 503.947 55.71 503.077 55.71C501.997 55.71 501.067 56.88 501.067 58.92V63H499.717ZM509.507 55.65C509.192 55.035 509.042 54.435 509.042 53.85C509.042 52.17 510.347 51.33 511.652 51.33C512.972 51.33 514.292 52.155 514.292 53.85H512.942C512.942 52.845 512.342 52.38 511.712 52.38C510.992 52.38 510.212 52.995 510.212 54.135C510.212 54.66 510.377 55.215 510.677 55.65H514.292V56.7H510.677L510.767 58.275V63H509.417V58.275L509.507 56.7H507.767V55.65H509.507ZM521.771 58.965C521.771 56.79 520.871 55.8 519.776 55.8C518.681 55.8 517.781 56.79 517.781 58.965C517.766 61.155 518.681 62.025 519.776 62.025C520.871 62.025 521.786 61.155 521.771 58.965ZM516.401 58.965C516.401 56.04 517.931 54.75 519.776 54.75C521.621 54.75 523.151 56.04 523.151 58.965C523.151 61.89 521.621 63.15 519.776 63.15C517.931 63.15 516.401 61.89 516.401 58.965ZM525.86 63V57.54L525.95 55.965V55.95H525.035V54.9H526.91L526.46 57.075H526.91C527.3 55.275 528.365 54.75 529.61 54.75C531.275 54.75 531.935 56.16 531.935 58.335C531.935 58.485 531.935 58.62 531.92 58.755H530.585V58.335C530.585 56.73 530.285 55.815 529.355 55.815C528.29 55.815 527.21 56.88 527.21 58.92V63H525.86ZM539.744 57.78C539.744 56.43 539.594 55.815 539.144 55.815C538.679 55.815 537.944 56.46 537.944 59.025V63H536.744V57.78C536.744 56.205 536.564 55.815 536.174 55.815C535.754 55.815 534.944 56.46 534.944 59.025V63H533.594V57.54L533.684 55.965V55.95H533.294V54.9H534.644L534.194 57.075H534.644C535.064 55.095 535.739 54.75 536.369 54.75C537.044 54.75 537.344 55.32 537.344 56.04C537.344 56.4 537.299 56.79 537.209 57.18H537.659C537.959 55.23 538.634 54.75 539.399 54.75C540.539 54.75 541.019 55.8 541.019 57.705V63H539.744V57.78ZM544.748 63.15C543.323 63.15 542.378 62.025 542.378 60.795C542.378 59.22 543.413 58.47 544.583 58.47C545.423 58.47 546.383 59.01 546.998 59.85H547.343L547.103 57.675C547.103 56.175 546.518 55.8 545.783 55.8C544.553 55.8 544.373 56.835 544.373 57.675H543.023C543.023 55.725 544.088 54.75 545.783 54.75C547.478 54.75 548.438 55.74 548.453 57.675V60.825C548.453 61.635 548.663 61.875 549.428 61.875V63C548.138 63 547.853 62.565 547.853 60.825H547.403C547.103 62.04 545.963 63.15 544.748 63.15ZM543.698 60.795C543.698 61.635 544.073 62.025 544.748 62.025C545.468 62.025 546.398 61.53 546.773 60.24C546.113 59.61 545.423 59.34 544.943 59.34C544.178 59.34 543.698 59.835 543.698 60.795ZM555.422 62.025C556.022 62.04 556.562 61.635 556.562 60.36H557.912C557.912 62.1 556.712 63.15 555.422 63.15C554.132 63.15 552.962 62.1 552.962 60.36V57.525L553.052 55.95H551.312V54.9H553.052L552.962 53.325V52.5H554.312V53.325L554.222 54.9H557.912V55.95H554.222L554.312 57.525V60.36C554.312 61.635 554.822 62.04 555.422 62.025ZM560.021 63V61.875H562.736L562.646 60.3V57.525L562.736 55.95H560.021V54.9H563.996V60.3L563.906 61.875H566.621V63H560.021ZM562.571 53.7V52.275H564.071V53.7H562.571ZM574.026 58.965C574.026 56.79 573.126 55.8 572.031 55.8C570.936 55.8 570.036 56.79 570.036 58.965C570.021 61.155 570.936 62.025 572.031 62.025C573.126 62.025 574.041 61.155 574.026 58.965ZM568.656 58.965C568.656 56.04 570.186 54.75 572.031 54.75C573.876 54.75 575.406 56.04 575.406 58.965C575.406 61.89 573.876 63.15 572.031 63.15C570.186 63.15 568.656 61.89 568.656 58.965ZM578.1 63V57.54L578.19 55.965V55.95H577.29V54.9H579.15L578.7 57.075H579.15C579.54 55.275 580.455 54.645 581.715 54.645C583.23 54.645 584.04 55.935 584.04 57.675V63H582.69V57.675C582.705 56.565 582.33 55.71 581.46 55.71C580.38 55.71 579.45 56.88 579.45 58.92V63H578.1Z" fill="#DD191F"/>
<rect x="688" y="10.5" width="22" height="24" stroke="black" stroke-opacity="0.5"/>
<path d="M700.053 29V26.48H695.553V25.43L699.378 18.5H701.403V25.43H702.303V26.48H701.403V29H700.053ZM696.978 25.43H700.053V24.98L700.413 19.55H699.963L696.978 25.43Z" fill="black" fill-opacity="0.5"/>
<path d="M634.889 63V52.5H638.144C640.049 52.5 641.609 53.625 641.609 55.785C641.609 57.78 640.274 59.16 638.129 59.16H636.164L636.239 60.585V63H634.889ZM636.164 58.11H637.859C639.539 58.11 640.259 57.165 640.259 55.785C640.259 54.57 639.704 53.55 637.979 53.55H636.164L636.239 54.975V56.685L636.164 58.11ZM645.593 63.15C644.168 63.15 643.223 62.025 643.223 60.795C643.223 59.22 644.258 58.47 645.428 58.47C646.268 58.47 647.228 59.01 647.843 59.85H648.188L647.948 57.675C647.948 56.175 647.363 55.8 646.628 55.8C645.398 55.8 645.218 56.835 645.218 57.675H643.868C643.868 55.725 644.933 54.75 646.628 54.75C648.323 54.75 649.283 55.74 649.298 57.675V60.825C649.298 61.635 649.508 61.875 650.273 61.875V63C648.983 63 648.698 62.565 648.698 60.825H648.248C647.948 62.04 646.808 63.15 645.593 63.15ZM644.543 60.795C644.543 61.635 644.918 62.025 645.593 62.025C646.313 62.025 647.243 61.53 647.618 60.24C646.958 59.61 646.268 59.34 645.788 59.34C645.023 59.34 644.543 59.835 644.543 60.795ZM653.117 66V64.875H654.242C654.767 64.875 654.992 64.56 655.367 63.21L655.427 63H654.422L651.932 54.9H653.372L655.277 61.875H655.727L657.632 54.9H658.982L656.522 63.21C655.862 65.445 655.382 66 654.242 66H653.117ZM666.716 57.78C666.716 56.43 666.566 55.815 666.116 55.815C665.651 55.815 664.916 56.46 664.916 59.025V63H663.716V57.78C663.716 56.205 663.536 55.815 663.146 55.815C662.726 55.815 661.916 56.46 661.916 59.025V63H660.566V57.54L660.656 55.965V55.95H660.266V54.9H661.616L661.166 57.075H661.616C662.036 55.095 662.711 54.75 663.341 54.75C664.016 54.75 664.316 55.32 664.316 56.04C664.316 56.4 664.271 56.79 664.181 57.18H664.631C664.931 55.23 665.606 54.75 666.371 54.75C667.511 54.75 667.991 55.8 667.991 57.705V63H666.716V57.78ZM673.026 63.15C671.106 63.15 669.726 61.755 669.726 58.98C669.726 56.205 671.106 54.75 673.026 54.75C674.931 54.75 676.026 56.175 676.026 58.035V59.16H670.911L671.286 60.285C671.391 61.335 671.856 62.025 673.026 62.025C674.016 62.025 674.451 61.515 674.571 60.525H675.951C675.681 62.265 674.676 63.15 673.026 63.15ZM670.911 58.185H674.976L674.601 57.06C674.436 56.43 674.046 55.8 673.026 55.8C672.156 55.8 671.541 56.265 671.286 57.06L670.911 58.185ZM678.945 63V57.54L679.035 55.965V55.95H678.135V54.9H679.995L679.545 57.075H679.995C680.385 55.275 681.3 54.645 682.56 54.645C684.075 54.645 684.885 55.935 684.885 57.675V63H683.535V57.675C683.55 56.565 683.175 55.71 682.305 55.71C681.225 55.71 680.295 56.88 680.295 58.92V63H678.945ZM691.104 62.025C691.704 62.04 692.244 61.635 692.244 60.36H693.594C693.594 62.1 692.394 63.15 691.104 63.15C689.814 63.15 688.644 62.1 688.644 60.36V57.525L688.734 55.95H686.994V54.9H688.734L688.644 53.325V52.5H689.994V53.325L689.904 54.9H693.594V55.95H689.904L689.994 57.525V60.36C689.994 61.635 690.504 62.04 691.104 62.025ZM704.487 63V52.5H707.187C709.527 52.5 711.087 54.45 711.087 57.36C711.087 60.75 709.527 63 707.187 63H704.487ZM705.747 61.95H707.187C708.702 61.95 709.722 60.12 709.722 57.36C709.722 55.08 708.702 53.55 707.187 53.55H705.747L705.837 54.975V60.525L705.747 61.95ZM716.571 63.15C714.651 63.15 713.271 61.755 713.271 58.98C713.271 56.205 714.651 54.75 716.571 54.75C718.476 54.75 719.571 56.175 719.571 58.035V59.16H714.456L714.831 60.285C714.936 61.335 715.401 62.025 716.571 62.025C717.561 62.025 717.996 61.515 718.116 60.525H719.496C719.226 62.265 718.221 63.15 716.571 63.15ZM714.456 58.185H718.521L718.146 57.06C717.981 56.43 717.591 55.8 716.571 55.8C715.701 55.8 715.086 56.265 714.831 57.06L714.456 58.185ZM725.94 62.025C726.54 62.04 727.08 61.635 727.08 60.36H728.43C728.43 62.1 727.23 63.15 725.94 63.15C724.65 63.15 723.48 62.1 723.48 60.36V57.525L723.57 55.95H721.83V54.9H723.57L723.48 53.325V52.5H724.83V53.325L724.74 54.9H728.43V55.95H724.74L724.83 57.525V60.36C724.83 61.635 725.34 62.04 725.94 62.025ZM732.684 63.15C731.259 63.15 730.314 62.025 730.314 60.795C730.314 59.22 731.349 58.47 732.519 58.47C733.359 58.47 734.319 59.01 734.934 59.85H735.279L735.039 57.675C735.039 56.175 734.454 55.8 733.719 55.8C732.489 55.8 732.309 56.835 732.309 57.675H730.959C730.959 55.725 732.024 54.75 733.719 54.75C735.414 54.75 736.374 55.74 736.389 57.675V60.825C736.389 61.635 736.599 61.875 737.364 61.875V63C736.074 63 735.789 62.565 735.789 60.825H735.339C735.039 62.04 733.899 63.15 732.684 63.15ZM731.634 60.795C731.634 61.635 732.009 62.025 732.684 62.025C733.404 62.025 734.334 61.53 734.709 60.24C734.049 59.61 733.359 59.34 732.879 59.34C732.114 59.34 731.634 59.835 731.634 60.795ZM739.249 63V61.875H741.964L741.874 60.3V57.525L741.964 55.95H739.249V54.9H743.224V60.3L743.134 61.875H745.849V63H739.249ZM741.799 53.7V52.275H743.299V53.7H741.799ZM750.283 54.09L750.373 52.515V52.5H748.258V51.45H751.633V60.3L751.543 61.875H754.258V63H748.258V61.875H750.373L750.283 60.3V54.09ZM760.012 63.15C758.227 63.15 756.562 62.16 756.892 60.555H758.242C758.092 61.695 759.082 62.025 760.012 62.025C761.062 62.025 761.722 61.605 761.722 60.795C761.722 60.12 761.062 59.82 760.042 59.565L759.217 59.355C757.642 58.95 757.042 58.14 757.042 57.06C757.042 55.5 758.542 54.75 759.982 54.75C761.572 54.75 763.177 55.68 763.117 57.525H761.737C761.797 56.235 760.852 55.8 759.967 55.8C759.187 55.8 758.317 56.145 758.317 57C758.317 57.54 758.872 57.96 759.712 58.17L760.537 58.38C762.082 58.77 763.072 59.415 763.072 60.735C763.072 62.22 761.752 63.15 760.012 63.15Z" fill="#DD191F"/>
<rect x="889" y="10.5" width="22" height="24" stroke="black" stroke-opacity="0.5"/>
<path d="M899.883 29.15C898.308 29.15 896.778 28.055 896.778 25.88H898.158C898.158 27.305 899.028 28.04 899.928 28.04C900.873 28.04 901.848 27.215 901.848 25.52C901.848 24.26 901.203 23 899.898 23C899.088 23 898.383 23.57 898.158 24.41L896.808 24.035L897.318 18.5H903.003V19.55H898.473L897.843 23H898.293C898.458 22.265 899.193 21.77 900.123 21.77C902.208 21.77 903.228 23.585 903.228 25.415C903.228 27.935 901.533 29.15 899.883 29.15Z" fill="black" fill-opacity="0.5"/>
<path d="M852.253 62.025C853.663 62.025 854.098 61.095 854.098 58.95H855.478C855.478 61.86 854.398 63.15 852.253 63.15C850.018 63.15 848.728 61.725 848.728 57.75C848.728 53.775 850.018 52.35 852.253 52.35C854.398 52.35 855.448 53.64 855.448 55.92H854.068C854.068 54.405 853.663 53.4 852.253 53.4C850.753 53.4 850.108 54.525 850.108 57.75C850.108 60.975 850.753 62.025 852.253 62.025ZM857.887 63V51.45H859.237V53.445L858.487 57.075H858.937C859.327 55.29 860.242 54.645 861.487 54.645C863.002 54.645 863.812 55.935 863.812 57.675V63H862.462V57.675C862.477 56.565 862.102 55.71 861.232 55.71C860.167 55.71 859.252 56.88 859.237 58.92V63H857.887ZM871.516 58.965C871.516 56.79 870.616 55.8 869.521 55.8C868.426 55.8 867.526 56.79 867.526 58.965C867.511 61.155 868.426 62.025 869.521 62.025C870.616 62.025 871.531 61.155 871.516 58.965ZM866.146 58.965C866.146 56.04 867.676 54.75 869.521 54.75C871.366 54.75 872.896 56.04 872.896 58.965C872.896 61.89 871.366 63.15 869.521 63.15C867.676 63.15 866.146 61.89 866.146 58.965ZM880.225 58.965C880.225 56.79 879.325 55.8 878.23 55.8C877.135 55.8 876.235 56.79 876.235 58.965C876.22 61.155 877.135 62.025 878.23 62.025C879.325 62.025 880.24 61.155 880.225 58.965ZM874.855 58.965C874.855 56.04 876.385 54.75 878.23 54.75C880.075 54.75 881.605 56.04 881.605 58.965C881.605 61.89 880.075 63.15 878.23 63.15C876.385 63.15 874.855 61.89 874.855 58.965ZM886.984 63.15C885.199 63.15 883.534 62.16 883.864 60.555H885.214C885.064 61.695 886.054 62.025 886.984 62.025C888.034 62.025 888.694 61.605 888.694 60.795C888.694 60.12 888.034 59.82 887.014 59.565L886.189 59.355C884.614 58.95 884.014 58.14 884.014 57.06C884.014 55.5 885.514 54.75 886.954 54.75C888.544 54.75 890.149 55.68 890.089 57.525H888.709C888.769 56.235 887.824 55.8 886.939 55.8C886.159 55.8 885.289 56.145 885.289 57C885.289 57.54 885.844 57.96 886.684 58.17L887.509 58.38C889.054 58.77 890.044 59.415 890.044 60.735C890.044 62.22 888.724 63.15 886.984 63.15ZM895.798 63.15C893.878 63.15 892.498 61.755 892.498 58.98C892.498 56.205 893.878 54.75 895.798 54.75C897.703 54.75 898.798 56.175 898.798 58.035V59.16H893.683L894.058 60.285C894.163 61.335 894.628 62.025 895.798 62.025C896.788 62.025 897.223 61.515 897.343 60.525H898.723C898.453 62.265 897.448 63.15 895.798 63.15ZM893.683 58.185H897.748L897.373 57.06C897.208 56.43 896.818 55.8 895.798 55.8C894.928 55.8 894.313 56.265 894.058 57.06L893.683 58.185ZM909.617 63V52.5H911.777L912.842 57.93H913.292L914.357 52.5H916.517V63H915.167V58.98L915.527 53.55H915.077L913.982 58.98H912.152L911.057 53.55H910.607L910.967 58.98V63H909.617ZM921.926 63.15C920.006 63.15 918.626 61.755 918.626 58.98C918.626 56.205 920.006 54.75 921.926 54.75C923.831 54.75 924.926 56.175 924.926 58.035V59.16H919.811L920.186 60.285C920.291 61.335 920.756 62.025 921.926 62.025C922.916 62.025 923.351 61.515 923.471 60.525H924.851C924.581 62.265 923.576 63.15 921.926 63.15ZM919.811 58.185H923.876L923.501 57.06C923.336 56.43 922.946 55.8 921.926 55.8C921.056 55.8 920.441 56.265 920.186 57.06L919.811 58.185ZM929.33 63.15C927.905 63.15 926.96 62.025 926.96 60.795C926.96 59.22 927.995 58.47 929.165 58.47C930.005 58.47 930.965 59.01 931.58 59.85H931.925L931.685 57.675C931.685 56.175 931.1 55.8 930.365 55.8C929.135 55.8 928.955 56.835 928.955 57.675H927.605C927.605 55.725 928.67 54.75 930.365 54.75C932.06 54.75 933.02 55.74 933.035 57.675V60.825C933.035 61.635 933.245 61.875 934.01 61.875V63C932.72 63 932.435 62.565 932.435 60.825H931.985C931.685 62.04 930.545 63.15 929.33 63.15ZM928.28 60.795C928.28 61.635 928.655 62.025 929.33 62.025C930.05 62.025 930.98 61.53 931.355 60.24C930.695 59.61 930.005 59.34 929.525 59.34C928.76 59.34 928.28 59.835 928.28 60.795ZM938.219 54.09L938.309 52.515V52.5H936.194V51.45H939.569V60.3L939.479 61.875H942.194V63H936.194V61.875H938.309L938.219 60.3V54.09ZM947.948 63.15C946.163 63.15 944.498 62.16 944.828 60.555H946.178C946.028 61.695 947.018 62.025 947.948 62.025C948.998 62.025 949.658 61.605 949.658 60.795C949.658 60.12 948.998 59.82 947.978 59.565L947.153 59.355C945.578 58.95 944.978 58.14 944.978 57.06C944.978 55.5 946.478 54.75 947.918 54.75C949.508 54.75 951.113 55.68 951.053 57.525H949.673C949.733 56.235 948.788 55.8 947.903 55.8C947.123 55.8 946.253 56.145 946.253 57C946.253 57.54 946.808 57.96 947.648 58.17L948.473 58.38C950.018 58.77 951.008 59.415 951.008 60.735C951.008 62.22 949.688 63.15 947.948 63.15Z" fill="#DD191F"/>
<line x1="107" y1="22.5" x2="285" y2="22.5" stroke="black" stroke-opacity="0.5"/>
<line x1="308" y1="22.5" x2="486" y2="22.5" stroke="black" stroke-opacity="0.5"/>
<line x1="509" y1="22.5" x2="687" y2="22.5" stroke="black" stroke-opacity="0.5"/>
<line x1="710" y1="22.5" x2="888" y2="22.5" stroke="black" stroke-opacity="0.5"/>
</svg>
